#N canvas 151 145 450 544 10;
#X obj 48 55 OSCroute /colorpickerosc;
#X obj 48 95 unpack f f f f;
#X floatatom 48 136 5 0 0 0 - - -;
#X floatatom 145 156 5 0 0 0 - - -;
#X floatatom 262 174 5 0 0 0 - - -;
#X floatatom 289 112 5 0 0 0 - - -;
#X obj 48 224 moses 254;
#X obj 51 416 mtof~;
#X obj 50 446 osc~;
#X obj 49 473 *~ 1;
#X obj 50 383 line~ 1000;
#X msg 50 354 0;
#X obj 77 335 pack 1 100;
#X obj 50 308 delay 100;
#X msg 77 287 100;
#X obj 50 265 t b b;
#X obj 49 501 dac~;
#X obj 148 224 moses 254;
#X obj 151 416 mtof~;
#X obj 150 446 osc~;
#X obj 149 473 *~ 1;
#X obj 150 383 line~ 1000;
#X msg 150 354 0;
#X obj 177 335 pack 1 100;
#X obj 150 308 delay 100;
#X obj 150 265 t b b;
#X obj 258 224 moses 254;
#X obj 261 416 mtof~;
#X obj 260 446 osc~;
#X obj 259 473 *~ 1;
#X obj 260 383 line~ 1000;
#X msg 260 354 0;
#X obj 287 335 pack 1 100;
#X obj 260 308 delay 100;
#X obj 260 265 t b b;
#X msg 177 287 90;
#X msg 287 288 80;
#X obj 48 22 dumpOSC 65535;
#X connect 0 0 1 0;
#X connect 1 0 2 0;
#X connect 1 1 3 0;
#X connect 1 2 4 0;
#X connect 1 3 5 0;
#X connect 2 0 6 0;
#X connect 3 0 17 0;
#X connect 4 0 26 0;
#X connect 6 1 15 0;
#X connect 7 0 8 0;
#X connect 8 0 9 0;
#X connect 9 0 16 0;
#X connect 10 0 7 0;
#X connect 11 0 10 0;
#X connect 12 0 10 0;
#X connect 13 0 11 0;
#X connect 14 0 12 0;
#X connect 15 0 13 0;
#X connect 15 1 14 0;
#X connect 17 1 25 0;
#X connect 18 0 19 0;
#X connect 19 0 20 0;
#X connect 20 0 16 0;
#X connect 21 0 18 0;
#X connect 22 0 21 0;
#X connect 23 0 21 0;
#X connect 24 0 22 0;
#X connect 25 0 24 0;
#X connect 25 1 35 0;
#X connect 26 1 34 0;
#X connect 27 0 28 0;
#X connect 28 0 29 0;
#X connect 29 0 16 0;
#X connect 30 0 27 0;
#X connect 31 0 30 0;
#X connect 32 0 30 0;
#X connect 33 0 31 0;
#X connect 34 0 33 0;
#X connect 34 1 36 0;
#X connect 35 0 23 0;
#X connect 36 0 32 0;
#X connect 37 0 0 0;
